# xmcd CD database file
#
# Track frame offsets:
#	150
#	42325
#	93952
#	141825
#	162225
#	203700
#	246100
#	267825
#
# Disc length: 3807 seconds
#
# Revision: 3
# Processed by: cddbd v1.5.2PL0 Copyright (c) Steve Scherf et al.
# Submitted via: CDex 1.51
#
DISCID=680edd08
DTITLE=Michael wild - BEYOND WORLDS
DYEAR=1900
DGENRE=New Age
TTITLE0=Flying
TTITLE1=Eternal calling
TTITLE2=Into the light
TTITLE3=Place of peace
TTITLE4=Adrift in consciousness
TTITLE5=Angel presence
TTITLE6=Heavenly
TTITLE7=Beyond worlds
EXTD=
EXTT0=
EXTT1=
EXTT2=
EXTT3=
EXTT4=
EXTT5=
EXTT6=
EXTT7=
PLAYORDER=
